<mxfile host="Electron" modified="2024-02-17T02:45:24.821Z" agent="Mozilla/5.0 (Windows NT 10.0; Win64; x64) AppleWebKit/537.36 (KHTML, like Gecko) draw.io/21.2.8 Chrome/112.0.5615.165 Electron/24.2.0 Safari/537.36" etag="0I2TPpLRssY4FklQLjRk" version="21.2.8" type="device">
  <diagram name="Page-1" id="16e2658f-23c8-b752-8be9-c03fbebb8bbe">
    <mxGraphModel dx="715" dy="415" grid="1" gridSize="10" guides="1" tooltips="1" connect="1" arrows="1" fold="1" page="1" pageScale="1" pageWidth="1100" pageHeight="850" background="none" math="0" shadow="0">
      <root>
        <mxCell id="0" />
        <mxCell id="1" parent="0" />
        <mxCell id="H8lYZqmQDmAIox5oj_bT-6" style="edgeStyle=orthogonalEdgeStyle;rounded=0;orthogonalLoop=1;jettySize=auto;html=1;entryX=0;entryY=0.75;entryDx=0;entryDy=0;endArrow=none;endFill=0;" edge="1" parent="1" source="H8lYZqmQDmAIox5oj_bT-5" target="H8lYZqmQDmAIox5oj_bT-5">
          <mxGeometry relative="1" as="geometry">
            <mxPoint x="260" y="210" as="targetPoint" />
            <Array as="points">
              <mxPoint x="481" y="180" />
              <mxPoint x="481" y="250" />
              <mxPoint x="270" y="250" />
              <mxPoint x="270" y="200" />
            </Array>
          </mxGeometry>
        </mxCell>
        <mxCell id="H8lYZqmQDmAIox5oj_bT-5" value="" style="triangle;whiteSpace=wrap;html=1;" vertex="1" parent="1">
          <mxGeometry x="320" y="140" width="120" height="80" as="geometry" />
        </mxCell>
        <mxCell id="H8lYZqmQDmAIox5oj_bT-7" value="" style="endArrow=none;html=1;rounded=0;" edge="1" parent="1">
          <mxGeometry width="50" height="50" relative="1" as="geometry">
            <mxPoint x="480" y="180" as="sourcePoint" />
            <mxPoint x="640" y="180" as="targetPoint" />
          </mxGeometry>
        </mxCell>
        <mxCell id="H8lYZqmQDmAIox5oj_bT-8" value="" style="endArrow=none;html=1;rounded=0;entryX=0;entryY=0.25;entryDx=0;entryDy=0;endFill=0;" edge="1" parent="1" target="H8lYZqmQDmAIox5oj_bT-5">
          <mxGeometry width="50" height="50" relative="1" as="geometry">
            <mxPoint x="160" y="160" as="sourcePoint" />
            <mxPoint x="240" y="155" as="targetPoint" />
            <Array as="points">
              <mxPoint x="210" y="160" />
            </Array>
          </mxGeometry>
        </mxCell>
        <mxCell id="H8lYZqmQDmAIox5oj_bT-11" style="edgeStyle=orthogonalEdgeStyle;rounded=0;orthogonalLoop=1;jettySize=auto;html=1;exitX=1;exitY=0.8;exitDx=0;exitDy=0;endArrow=none;endFill=0;" edge="1" parent="1" source="H8lYZqmQDmAIox5oj_bT-9">
          <mxGeometry relative="1" as="geometry">
            <mxPoint x="220" y="160" as="targetPoint" />
          </mxGeometry>
        </mxCell>
        <mxCell id="H8lYZqmQDmAIox5oj_bT-12" style="edgeStyle=orthogonalEdgeStyle;rounded=0;orthogonalLoop=1;jettySize=auto;html=1;exitX=0;exitY=0.8;exitDx=0;exitDy=0;endArrow=none;endFill=0;" edge="1" parent="1" source="H8lYZqmQDmAIox5oj_bT-9">
          <mxGeometry relative="1" as="geometry">
            <mxPoint x="640" y="294" as="targetPoint" />
          </mxGeometry>
        </mxCell>
        <mxCell id="H8lYZqmQDmAIox5oj_bT-9" value="" style="html=1;shape=mxgraph.electrical.electro-mechanical.singleSwitch;aspect=fixed;elSwitchState=off;direction=west;" vertex="1" parent="1">
          <mxGeometry x="320" y="290" width="75" height="20" as="geometry" />
        </mxCell>
        <mxCell id="H8lYZqmQDmAIox5oj_bT-13" value="" style="endArrow=classic;html=1;rounded=0;" edge="1" parent="1">
          <mxGeometry width="50" height="50" relative="1" as="geometry">
            <mxPoint x="640" y="360" as="sourcePoint" />
            <mxPoint x="360" y="320" as="targetPoint" />
            <Array as="points">
              <mxPoint x="360" y="360" />
            </Array>
          </mxGeometry>
        </mxCell>
        <mxCell id="H8lYZqmQDmAIox5oj_bT-15" value="â€”" style="text;html=1;strokeColor=none;fillColor=none;align=center;verticalAlign=middle;whiteSpace=wrap;rounded=0;" vertex="1" parent="1">
          <mxGeometry x="305" y="184" width="60" height="30" as="geometry" />
        </mxCell>
        <mxCell id="H8lYZqmQDmAIox5oj_bT-16" value="+" style="text;html=1;strokeColor=none;fillColor=none;align=center;verticalAlign=middle;whiteSpace=wrap;rounded=0;fontSize=22;" vertex="1" parent="1">
          <mxGeometry x="305" y="146" width="60" height="30" as="geometry" />
        </mxCell>
        <mxCell id="H8lYZqmQDmAIox5oj_bT-17" value="Patient" style="text;html=1;strokeColor=none;fillColor=none;align=center;verticalAlign=middle;whiteSpace=wrap;rounded=0;" vertex="1" parent="1">
          <mxGeometry x="100" y="146" width="60" height="30" as="geometry" />
        </mxCell>
        <mxCell id="H8lYZqmQDmAIox5oj_bT-18" value="Data to Board" style="text;html=1;strokeColor=none;fillColor=none;align=center;verticalAlign=middle;whiteSpace=wrap;rounded=0;" vertex="1" parent="1">
          <mxGeometry x="640" y="165" width="80" height="30" as="geometry" />
        </mxCell>
        <mxCell id="H8lYZqmQDmAIox5oj_bT-19" value="Current Supply" style="text;html=1;strokeColor=none;fillColor=none;align=center;verticalAlign=middle;whiteSpace=wrap;rounded=0;" vertex="1" parent="1">
          <mxGeometry x="640" y="280" width="90" height="30" as="geometry" />
        </mxCell>
        <mxCell id="H8lYZqmQDmAIox5oj_bT-20" value="Current Control Data Line" style="text;html=1;strokeColor=none;fillColor=none;align=center;verticalAlign=middle;whiteSpace=wrap;rounded=0;" vertex="1" parent="1">
          <mxGeometry x="640" y="345" width="90" height="30" as="geometry" />
        </mxCell>
      </root>
    </mxGraphModel>
  </diagram>
</mxfile>
